<svg width="125" height="68" viewBox="0 0 125 68" fill="none" xmlns="http://www.w3.org/2000/svg">
<rect x="0.643448" y="0.643448" width="123.713" height="66.7131" stroke="#2A3A66" stroke-width="1.2869"/>
<path d="M70.4316 23.316C70.4316 23.1976 70.5277 23.1016 70.6461 23.1016H74.7257C74.8151 23.1016 74.8951 23.157 74.9265 23.2407L80.7826 38.8441C80.8074 38.9102 80.8707 38.954 80.9413 38.954C81.0119 38.954 81.0752 38.9102 81.1 38.8441L86.9561 23.2407C86.9875 23.157 87.0675 23.1016 87.1569 23.1016H91.2365C91.3549 23.1016 91.4509 23.1976 91.4509 23.316V44.7643C91.4509 44.8828 91.3549 44.9788 91.2365 44.9788H88.1818C88.0633 44.9788 87.9673 44.8828 87.9673 44.7643V30.0585C87.9673 29.998 87.9182 29.9489 87.8577 29.9489C87.8118 29.9489 87.7708 29.9774 87.7549 30.0205L82.2946 44.7747C82.2634 44.8588 82.1832 44.9147 82.0934 44.9147H79.7893C79.6995 44.9147 79.6192 44.8588 79.5881 44.7745L74.1277 29.9885C74.1118 29.9454 74.0707 29.9168 74.0249 29.9168C73.9643 29.9168 73.9153 29.9659 73.9153 30.0264V44.7643C73.9153 44.8828 73.8193 44.9788 73.7008 44.9788H70.6461C70.5277 44.9788 70.4316 44.8828 70.4316 44.7643V23.316Z" fill="#2A3A66"/>
<path d="M42.859 23.2125C42.859 23.0941 42.955 22.998 43.0735 22.998H46.5557C46.6741 22.998 46.7702 23.0941 46.7702 23.2125V38.3026C46.7631 39.7055 46.4655 40.9135 45.8774 41.9267C45.2893 42.9329 44.4674 43.7087 43.4117 44.2543C42.363 44.7928 41.1408 45.062 39.745 45.062C38.4696 45.062 37.3217 44.8353 36.3014 44.3818C35.2882 43.9213 34.484 43.2411 33.8889 42.3412C33.3258 41.4899 33.029 40.4419 32.9987 39.1973C32.9958 39.0789 33.0921 38.9828 33.2106 38.9828H36.706C36.8234 38.9828 36.9183 39.0773 36.9259 39.1945C36.9579 39.6933 37.0828 40.1294 37.3005 40.5026C37.5556 40.9277 37.9063 41.2536 38.3527 41.4804C38.7991 41.7071 39.3127 41.8205 39.8938 41.8205C40.5244 41.8205 41.0593 41.6894 41.4986 41.4272C41.9379 41.158 42.2709 40.7612 42.4976 40.2369C42.7315 39.7126 42.8519 39.0678 42.859 38.3026V23.2125Z" fill="#2A3A66"/>
<rect x="51.5566" y="26.2168" width="3.21724" height="13.9414" rx="0.214483" transform="rotate(-90 51.5566 26.2168)" fill="#2A3A66"/>
<rect x="51.5566" y="45.0898" width="3.21724" height="13.9414" rx="0.214483" transform="rotate(-90 51.5566 45.0898)" fill="#2A3A66"/>
<rect x="51.5566" y="35.4395" width="3.21724" height="13.9414" rx="0.214483" transform="rotate(-90 51.5566 35.4395)" fill="#2A3A66"/>
</svg>
